<svg width="77" height="24" viewBox="0 0 77 24" fill="none" xmlns="http://www.w3.org/2000/svg">
<path fill-rule="evenodd" clip-rule="evenodd" d="M3.84884 0.0151757C3.83691 0.0272909 3.82712 0.880657 3.82712 1.91159V3.78597L2.86554 3.79936C1.97002 3.81181 1.88841 3.8179 1.6777 3.88787C1.045 4.09805 0.604802 4.44936 0.28714 4.99769C0.0678996 5.37611 -0.0014008 5.67781 2.13692e-05 6.24758C0.00102335 6.65887 0.0119819 6.75792 0.0818623 6.98818C0.314614 7.75494 0.926179 8.36675 1.67696 8.58394C1.87532 8.64131 2.02513 8.65126 2.86399 8.66266L3.82405 8.67572L3.83623 12.9872C3.84948 17.6774 3.84486 17.5508 4.03786 18.5164C4.33115 19.984 5.06735 21.3179 6.05737 22.1756C7.00331 22.9952 8.14874 23.4942 9.64509 23.7386C10.055 23.8056 10.2124 23.8107 12.2389 23.8225L14.3964 23.8351V21.4264V19.0176L13.4025 19.0167C11.8082 19.0151 11.3718 18.9602 10.8154 18.6907C10.0193 18.3051 9.55895 17.6328 9.38484 16.6011C9.32491 16.246 9.32187 16.045 9.32187 12.4493V8.67061H11.0483C12.8819 8.67061 13.0332 8.6603 13.4335 8.50794C13.5349 8.46934 13.724 8.36672 13.8537 8.27992C14.5791 7.79413 14.949 7.0277 14.9048 6.10194C14.8528 5.01363 14.1982 4.18145 13.1468 3.86701C12.9802 3.81718 12.7457 3.80932 11.1402 3.79966L9.32239 3.78876L9.31405 1.89935L9.30571 0.00990365L6.58813 0.00152187C5.0935 -0.00306225 3.8608 0.00306057 3.84884 0.0151757ZM61.3683 5.3062L61.3766 7.67193L64.914 7.6883L68.4514 7.70467L68.3078 7.8271C68.2288 7.89446 68.1116 7.99023 68.0472 8.03994C67.9828 8.08968 67.7865 8.24724 67.6109 8.39013C67.4352 8.53302 66.8337 9.01927 66.2742 9.47067C65.7146 9.92208 65.0746 10.4388 64.852 10.619L64.4472 10.9466V12.9275V14.9083L66.6841 14.9149C68.8163 14.9212 68.9342 14.9247 69.2008 14.9888C70.5159 15.3053 71.1006 16.5817 70.4916 17.8068C70.3705 18.0505 69.9948 18.4157 69.728 18.549C68.9434 18.9411 67.747 18.8988 66.9528 18.4508C66.4791 18.1836 65.9935 17.6051 65.7861 17.0612C65.7432 16.9486 65.6971 16.8565 65.6836 16.8565C65.6604 16.8565 63.4888 17.7276 63.1087 17.8895C63.0093 17.9317 62.5571 18.1154 62.1038 18.2975C61.6505 18.4797 61.2658 18.6425 61.2489 18.6594C61.232 18.6764 61.1937 18.6902 61.1638 18.6902C61.118 18.6902 60.9247 18.7662 60.3908 18.994C60.3022 19.0318 60.2768 19.0402 60.2309 19.0463C60.1739 19.0539 60.4382 19.7286 60.6559 20.1308C60.925 20.6282 61.5558 21.4628 61.6894 21.4982C61.7214 21.5067 61.74 21.5259 61.7309 21.541C61.6948 21.6001 62.5546 22.2872 63.0412 22.5882C63.8673 23.0993 65.0071 23.5349 66.1118 23.7619C67.3178 24.0097 68.9174 24.07 70.1682 23.9148C72.7586 23.5935 74.9541 22.3169 76.1103 20.4596C76.5748 19.7133 76.8896 18.7794 76.9745 17.8951C77.0419 17.1946 76.9721 16.28 76.8071 15.7001C76.7703 15.5708 76.7277 15.4134 76.7123 15.3503C76.5804 14.8096 76.1174 13.9365 75.6587 13.3636C74.7781 12.2637 73.4747 11.4756 71.9863 11.1431C71.8485 11.1122 71.7358 11.0826 71.7358 11.0771C71.7358 11.0636 73.1422 9.78776 74.5478 8.52621C74.9656 8.1513 75.347 7.80052 75.3953 7.74675L75.4832 7.64898L75.4833 5.58121C75.4833 4.44396 75.4746 3.38457 75.4639 3.22697L75.4445 2.94047H68.4022H61.36L61.3683 5.3062ZM25.1597 3.12733C24.4761 3.16971 23.469 3.36315 22.8002 3.58057C21.2044 4.09926 19.93 4.88934 18.7416 6.0966C17.8608 6.99145 17.3117 7.76604 16.7891 8.8507C16.3847 9.69012 16.1379 10.4254 15.9495 11.3524C15.8216 11.9815 15.7861 12.2742 15.7573 12.9338C15.6059 16.4106 16.8651 19.4855 19.2609 21.4888C20.7229 22.7113 22.4755 23.4503 24.6264 23.7514C25.1418 23.8236 26.7077 23.8519 27.3494 23.8007C30.2633 23.5682 32.4973 22.5559 34.1315 20.7276C34.4491 20.3722 34.9856 19.6756 34.9856 19.6184C34.9856 19.5941 31.1773 17.0047 30.8667 16.8178C30.8434 16.8038 30.7694 16.8959 30.6692 17.0633C30.4431 17.4414 30.0539 17.9193 29.7843 18.1499C28.997 18.8233 28.1625 19.1252 26.8404 19.2151C24.421 19.3797 22.4254 18.2947 21.506 16.315C21.3603 16.0014 21.1194 15.3087 21.1194 15.2036C21.1194 15.1593 21.9143 15.1539 28.436 15.1539H35.7525L35.7733 15.0008C35.881 14.2045 35.8771 12.4376 35.766 11.683C35.4959 9.84939 34.8032 8.22343 33.6735 6.77148C33.3535 6.36015 32.4681 5.48623 32.0426 5.16167C30.8645 4.26315 29.4919 3.62923 28.1215 3.35078C27.1097 3.14518 26.1001 3.06902 25.1597 3.12733ZM47.1387 3.12334C45.7136 3.24642 44.6799 3.48778 43.5951 3.95077C40.4496 5.2933 38.2427 8.13005 37.654 11.5873C37.5245 12.3485 37.4933 12.7332 37.4953 13.5494C37.4988 15.0057 37.745 16.293 38.2658 17.5769C39.037 19.4782 40.418 21.141 42.1275 22.2263C43.5211 23.1111 45.1217 23.649 46.8118 23.8003C47.3728 23.8506 48.8018 23.8223 49.2972 23.7512C51.3493 23.4565 53.0147 22.74 54.5405 21.4955C54.8615 21.2337 55.5681 20.5117 55.844 20.1637C56.3979 19.465 56.9314 18.5249 57.2072 17.7616C57.2714 17.584 57.3194 17.4343 57.3139 17.4287C57.3056 17.4204 54.4486 16.2546 52.8935 15.625C52.6543 15.5281 52.4488 15.4599 52.4369 15.4733C52.4249 15.4867 52.3894 15.5787 52.3579 15.6778C51.9773 16.876 51.1665 17.846 50.0901 18.391C49.377 18.7521 48.6307 18.9061 47.7367 18.8765C46.4974 18.8355 45.4818 18.4231 44.6054 17.605C43.8238 16.8754 43.317 15.856 43.0776 14.5317C42.998 14.0917 42.9974 12.8805 43.0766 12.4198C43.3043 11.094 43.7815 10.1488 44.6383 9.3265C45.7377 8.27134 47.4063 7.83002 48.9811 8.17792C50.498 8.51302 51.6709 9.60545 52.1995 11.1755C52.2662 11.3736 52.3231 11.5392 52.3259 11.5435C52.3287 11.5478 52.49 11.4873 52.6843 11.409C52.8785 11.3307 53.372 11.1334 53.7809 10.9705C54.7465 10.5857 55.58 10.253 56.4717 9.89644C56.8799 9.73321 57.1909 9.59097 57.1909 9.5675C57.1909 9.46638 56.8896 8.71095 56.6954 8.32494C55.5994 6.14673 53.5945 4.44363 51.1925 3.65048C50.4624 3.40942 49.9385 3.29295 49.0942 3.18411C48.7245 3.13647 47.4466 3.09675 47.1387 3.12334ZM1.95008 3.92451C1.26375 4.02821 0.582208 4.55558 0.285233 5.21275C0.125335 5.56658 0.067995 5.89231 0.0860308 6.3446C0.0999293 6.6925 0.117771 6.80006 0.203198 7.0498C0.431909 7.71872 0.956141 8.24128 1.61933 8.46151L1.90395 8.55601H7.44719H12.9904L13.2789 8.46027C13.8441 8.27278 14.3159 7.85457 14.5779 7.3091C14.7526 6.94544 14.8153 6.66074 14.8161 6.22826C14.8176 5.32303 14.3565 4.54324 13.5884 4.15195C13.059 3.88234 13.6587 3.90722 7.56032 3.90195C4.57376 3.8994 2.04915 3.90951 1.95008 3.92451ZM11.6462 4.78868C11.2303 4.90489 10.8702 5.21157 10.6729 5.61743C10.5701 5.82898 10.5663 5.85118 10.5663 6.23222C10.5663 6.624 10.5674 6.62976 10.6892 6.8795C10.8486 7.20628 11.0724 7.43208 11.3885 7.5851C11.8317 7.79957 12.3944 7.76312 12.8066 7.49325C13.728 6.88994 13.6954 5.51396 12.7462 4.94739C12.4251 4.75574 11.9892 4.69284 11.6462 4.78868ZM25.41 7.33261C24.5666 7.40805 23.6978 7.71849 23.0588 8.17278C22.1097 8.84743 21.4277 9.90469 21.1006 11.2083C21.0736 11.3163 21.0439 11.4305 21.0347 11.462C21.0189 11.5164 21.2643 11.5193 25.8692 11.5193H30.7203L30.7008 11.4293C30.6179 11.0479 30.4268 10.4588 30.276 10.1198C29.5341 8.4514 28.2032 7.48912 26.4157 7.32887C26.0023 7.29178 25.8601 7.29233 25.41 7.33261ZM61.7998 18.8162C61.7895 18.8331 61.8048 18.8563 61.8339 18.8676C61.9053 18.8954 61.922 18.8721 61.8651 18.8242C61.8374 18.801 61.8111 18.7977 61.7998 18.8162ZM62.8149 19.227C62.8149 19.234 62.8367 19.2483 62.8634 19.2587C62.8901 19.269 62.9119 19.2632 62.9119 19.2458C62.9119 19.2284 62.8901 19.2141 62.8634 19.2141C62.8367 19.2141 62.8149 19.2199 62.8149 19.227ZM60.9079 19.3778C60.9079 19.3958 60.9233 19.4105 60.9421 19.4105C60.9609 19.4105 60.9674 19.3958 60.9564 19.3778C60.9454 19.3598 60.93 19.3451 60.9222 19.3451C60.9143 19.3451 60.9079 19.3598 60.9079 19.3778ZM61.8233 19.5743C61.8233 19.6913 61.8291 19.7392 61.8363 19.6807C61.8435 19.6222 61.8435 19.5264 61.8363 19.4679C61.8291 19.4093 61.8233 19.4572 61.8233 19.5743ZM61.8155 19.8881C61.817 19.9262 61.8247 19.934 61.835 19.9079C61.8443 19.8842 61.8432 19.856 61.8324 19.8451C61.8217 19.8342 61.8141 19.8535 61.8155 19.8881ZM61.8204 20.0654C61.8204 20.1285 61.8271 20.1543 61.8352 20.1227C61.8433 20.0912 61.8433 20.0397 61.8352 20.0081C61.8271 19.9766 61.8204 20.0024 61.8204 20.0654ZM60.7463 20.0451C60.7463 20.0518 60.7717 20.0776 60.8029 20.1024C60.8541 20.1431 60.8553 20.1419 60.8151 20.09C60.7728 20.0354 60.7463 20.0181 60.7463 20.0451ZM62.524 20.2946C62.524 20.3126 62.5394 20.3274 62.5582 20.3274C62.5771 20.3274 62.5835 20.3126 62.5725 20.2946C62.5615 20.2766 62.5461 20.2619 62.5383 20.2619C62.5304 20.2619 62.524 20.2766 62.524 20.2946ZM61.0117 20.3799C60.977 20.4179 60.9811 20.4256 61.0359 20.4256C61.0722 20.4256 61.1018 20.4118 61.1018 20.3948C61.1018 20.3406 61.0547 20.3328 61.0117 20.3799ZM61.8504 20.5238C61.8504 20.5689 61.8577 20.5873 61.8666 20.5648C61.8756 20.5423 61.8756 20.5054 61.8666 20.4829C61.8577 20.4604 61.8504 20.4788 61.8504 20.5238ZM61.8366 20.8226C61.8586 20.845 61.8846 20.855 61.8946 20.8449C61.9045 20.8349 61.8866 20.8166 61.8547 20.8043C61.8087 20.7865 61.8049 20.7902 61.8366 20.8226ZM63.076 21.5252C63.0776 21.5634 63.0853 21.5711 63.0956 21.545C63.1049 21.5214 63.1037 21.4931 63.093 21.4823C63.0823 21.4714 63.0747 21.4907 63.076 21.5252ZM62.3624 21.6044C62.3624 21.6224 62.3769 21.6371 62.3947 21.6371C62.4125 21.6371 62.427 21.6224 62.427 21.6044C62.427 21.5864 62.4125 21.5716 62.3947 21.5716C62.3769 21.5716 62.3624 21.5864 62.3624 21.6044ZM63.1084 22.0164C63.1099 22.0545 63.1176 22.0623 63.1279 22.0362C63.1372 22.0126 63.1361 21.9843 63.1253 21.9734C63.1146 21.9626 63.107 21.9819 63.1084 22.0164ZM63.7443 22.2429C63.7358 22.2879 63.7414 22.3247 63.7567 22.3247C63.772 22.3247 63.7846 22.2879 63.7846 22.2429C63.7846 22.1979 63.779 22.161 63.7722 22.161C63.7654 22.161 63.7528 22.1979 63.7443 22.2429ZM64.8674 22.3247C64.8564 22.3427 64.8628 22.3575 64.8816 22.3575C64.9004 22.3575 64.9158 22.3427 64.9158 22.3247C64.9158 22.3067 64.9094 22.292 64.9016 22.292C64.8937 22.292 64.8783 22.3067 64.8674 22.3247ZM63.0786 22.3902C63.0786 22.4352 63.0859 22.4537 63.0949 22.4312C63.1039 22.4087 63.1039 22.3718 63.0949 22.3493C63.0859 22.3268 63.0786 22.3452 63.0786 22.3902ZM63.0735 22.5559C63.0735 22.5749 63.088 22.5814 63.1058 22.5703C63.1236 22.5592 63.1381 22.5436 63.1381 22.5356C63.1381 22.5277 63.1236 22.5212 63.1058 22.5212C63.088 22.5212 63.0735 22.5368 63.0735 22.5559Z" fill="white"/>
</svg>
